<svg width="220" height="68" viewBox="0 0 220 68" fill="none" xmlns="http://www.w3.org/2000/svg">
<path d="M47.7909 0H15.9232L3.54756 18.2799C-1.17975 25.2621 3.63494 34.8711 11.8594 34.8711H20.2179C21.1456 34.8711 21.6873 35.9536 21.1543 36.7412L0 67.9941H32.7982L45.1739 49.7141C49.9011 42.7319 45.0858 33.1229 36.862 33.1229H27.5737C26.6453 33.1229 26.1036 32.0405 26.6373 31.2529L47.7909 0Z" fill="#0D0D13"/>
<path d="M214.255 58.486C210.256 58.486 207.299 57.5194 205.385 55.5854C203.514 53.6078 202.578 50.6635 202.578 46.7527V16.5619L210.681 13.4635V46.9498C210.681 48.5761 211.107 49.7849 211.957 50.5755C212.808 51.3669 214.148 51.7625 215.977 51.7625C216.7 51.7625 217.339 51.7182 217.892 51.6301C218.487 51.4985 219.04 51.3451 219.551 51.169V57.6292C219.04 57.8925 218.317 58.0903 217.381 58.2219C216.446 58.398 215.404 58.486 214.255 58.486ZM190.752 30.734V24.2084H219.551V30.734H190.752Z" fill="#0D0D13"/>
<path d="M179.481 57.8271V21.11C179.481 17.4188 180.459 14.6062 182.416 12.6722C184.415 10.6954 187.394 9.70618 191.35 9.70618C192.243 9.70618 192.987 9.74981 193.583 9.83782C194.178 9.92583 194.752 10.0575 195.306 10.2335V16.6936C195.008 16.562 194.625 16.474 194.157 16.4296C193.689 16.3424 193.158 16.298 192.562 16.298C190.86 16.298 189.584 16.7373 188.733 17.6166C187.925 18.4516 187.521 19.6822 187.521 21.3078V57.8271H179.481ZM173.61 30.734V24.2084H194.604V30.734H173.61Z" fill="#0D0D13"/>
<path d="M161.94 57.8271V24.2084H169.979V57.8271H161.94ZM161.557 18.6712V9.5083H170.298V18.6712H161.557Z" fill="#0D0D13"/>
<path d="M119.38 57.8269L109.426 24.2083H117.848L123.719 49.4546H123.144L130.355 24.2083H137.693L145.031 49.4546H144.392L150.199 24.2083H158.43L148.477 57.8269H140.947L133.609 32.8431H134.247L126.909 57.8269H119.38Z" fill="#0D0D13"/>
<path d="M90.9369 58.4198C85.151 58.4198 80.5359 57.0575 77.0903 54.3329C73.6869 51.5647 71.6874 47.6749 71.0918 42.665H79.068C79.451 45.5656 80.7063 47.8291 82.8333 49.4547C84.9602 51.0374 87.7461 51.828 91.1917 51.828C94.0417 51.828 96.2116 51.3006 97.7007 50.246C99.232 49.1478 99.9973 47.6313 99.9973 45.6973C99.9973 43.9837 99.5298 42.5996 98.5934 41.545C97.6577 40.4903 96.0842 39.6328 93.8721 38.9739L85.5769 36.4035C81.3653 35.0848 78.2597 33.3487 76.261 31.1958C74.3037 29.0422 73.3258 26.3394 73.3258 23.0875C73.3258 20.3629 74.0059 17.9896 75.3675 15.9684C76.7284 13.9472 78.6427 12.387 81.1105 11.288C83.6197 10.1898 86.5337 9.63989 89.8519 9.63989C94.9563 9.63989 99.0194 10.9367 102.039 13.5297C105.102 16.0782 106.846 19.5498 107.272 23.9443H99.2954C98.8279 21.3077 97.764 19.3745 96.1053 18.1439C94.4459 16.8696 92.2126 16.2317 89.4056 16.2317C86.9379 16.2317 84.9813 16.7372 83.5345 17.7482C82.0884 18.7592 81.3653 20.1433 81.3653 21.9012C81.3653 23.3515 81.7905 24.5814 82.6418 25.5924C83.5345 26.6034 85.1728 27.482 87.5546 28.229L95.9779 30.8663C100.189 32.1406 103.251 33.876 105.166 36.0733C107.08 38.2705 108.038 41.0613 108.038 44.4456C108.038 48.9274 106.527 52.3771 103.507 54.7948C100.53 57.2117 96.339 58.4198 90.9369 58.4198Z" fill="#0D0D13"/>
</svg>
